<?xml version="1.0" encoding="utf-8"?>
<!-- Generator: Adobe Illustrator 26.4.1, SVG Export Plug-In . SVG Version: 6.00 Build 0)  -->
<!DOCTYPE svg PUBLIC "-//W3C//DTD SVG 1.1//EN" "http://www.w3.org/Graphics/SVG/1.1/DTD/svg11.dtd" [
	<!ENTITY ns_extend "http://ns.adobe.com/Extensibility/1.0/">
	<!ENTITY ns_ai "http://ns.adobe.com/AdobeIllustrator/10.0/">
	<!ENTITY ns_graphs "http://ns.adobe.com/Graphs/1.0/">
	<!ENTITY ns_vars "http://ns.adobe.com/Variables/1.0/">
	<!ENTITY ns_imrep "http://ns.adobe.com/ImageReplacement/1.0/">
	<!ENTITY ns_sfw "http://ns.adobe.com/SaveForWeb/1.0/">
	<!ENTITY ns_custom "http://ns.adobe.com/GenericCustomNamespace/1.0/">
	<!ENTITY ns_adobe_xpath "http://ns.adobe.com/XPath/1.0/">
]>
<svg version="1.1" id="Layer_1" xmlns:x="&ns_extend;" xmlns:i="&ns_ai;" xmlns:graph="&ns_graphs;"
	 xmlns="http://www.w3.org/2000/svg" xmlns:xlink="http://www.w3.org/1999/xlink" x="0px" y="0px" viewBox="0 0 308 56"
	 style="enable-background:new 0 0 308 56;" xml:space="preserve">
<style type="text/css">
	.st0{fill:#FFFFFF;}
</style>
<metadata>
	<sfw  xmlns="&ns_sfw;">
		<slices></slices>
		<sliceSourceBounds  bottomLeftOrigin="true" height="56" width="308" x="0" y="-56"></sliceSourceBounds>
	</sfw>
</metadata>
<g>
	<g>
		<polygon class="st0" points="289,27.3 277.9,11.5 277.9,11.4 270.9,1.6 248.8,1.6 266.8,27.3 247.7,54.4 270,54.4 277.9,43.1 
			284.4,33.8 		"/>
		<polygon class="st0" points="294.4,19.5 294.4,19.6 307,1.6 284.7,1.6 278.6,10.4 289.8,26.1 		"/>
		<polygon class="st0" points="299.5,42.3 289.7,28.3 278.6,44.1 285.8,54.4 308,54.4 		"/>
	</g>
	<path class="st0" d="M238.9,30.7c-0.9-1.8-2.3-3.3-3.9-4.5c-1.6-1.2-3.4-2.2-5.3-2.9c-1.9-0.8-3.9-1.4-5.9-1.8
		c-0.4-0.1-0.9-0.2-1.3-0.3c-0.4-0.1-0.8-0.2-1.3-0.3c-0.4-0.1-0.8-0.2-1.3-0.3c-0.4-0.1-0.8-0.2-1.2-0.3c-1.3-0.3-2.7-0.6-3.9-0.9
		c-1.2-0.3-2.4-0.6-3.4-1c-1-0.3-1.8-0.7-2.4-1.1c-0.6-0.4-0.9-0.9-1-1.4c0-0.6,0.3-1,0.7-1.4c0.4-0.4,1-0.6,1.6-0.8
		c0.6-0.2,1.3-0.3,1.8-0.3c0.5,0,1-0.1,1.2-0.1c0.5,0,1.1,0,1.7,0.1c0.6,0.1,1.2,0.2,1.8,0.4c0.6,0.2,1.1,0.5,1.5,0.8
		c0.5,0.4,0.8,0.8,1.1,1.4c0.1,0.2,0.1,0.3,0.2,0.5c0,0.2,0.1,0.3,0.1,0.5c0,0.2,0,0.3,0.1,0.5c0,0.2,0,0.3,0,0.5c0,0,0,0.1,0,0.2
		c0,0.1,0,0.2,0,0.3c0,0.1,0,0.2,0,0.3c0,0.1,0,0.1,0,0.1H238v-1c-0.1-2.9-0.7-5.4-1.8-7.6c-1.1-2.2-2.7-4.1-4.8-5.6
		c-2.1-1.5-4.6-2.7-7.6-3.4c-3-0.8-6.4-1.2-10.2-1.2c-2.1,0-4.2,0.1-6.2,0.5c-2,0.3-4,0.8-5.8,1.5c-1.8,0.7-3.5,1.5-5,2.6
		c-1.5,1.1-2.8,2.3-3.9,3.8V1.6h-19.7v29.5c0,1-0.2,2-0.5,2.9c-0.3,0.9-0.8,1.7-1.4,2.3c-0.6,0.7-1.4,1.2-2.3,1.6
		c-0.9,0.4-2,0.6-3.3,0.6c-1.3,0-2.4-0.2-3.3-0.6c-0.9-0.4-1.7-0.9-2.3-1.6c-0.6-0.7-1.1-1.5-1.4-2.3c-0.3-0.9-0.5-1.8-0.5-2.9V1.6
		h-19.7v8c-1.3-1.5-2.8-2.9-4.4-4.1c-1.6-1.2-3.4-2.2-5.3-3c-1.9-0.8-3.9-1.5-6-1.9c-2.1-0.4-4.3-0.6-6.5-0.6c-2.8,0-5.6,0.3-8.2,1
		c-2.6,0.7-5,1.7-7.3,3c-2.2,1.3-4.3,2.9-6,4.8c-1.7,1.9-3.2,4-4.4,6.4c-1.2-2.4-2.6-4.5-4.4-6.4c-1.8-1.9-3.8-3.5-6-4.8
		c-2.2-1.3-4.7-2.3-7.3-3c-2.6-0.7-5.4-1-8.2-1c-3.9,0-7.7,0.7-11.1,2c-3.4,1.3-6.5,3.2-9.1,5.6c-2.6,2.4-4.7,5.4-6.1,8.8
		c-1.4,3.4-2.2,7.3-2.2,11.6c0,0.7,0,1.4,0.1,2.1c0,0.7,0.1,1.4,0.2,2c0.1,0.7,0.2,1.3,0.3,2c0.1,0.6,0.3,1.3,0.4,1.9H19.7V1.6H0V36
		v18.4h19.7h24.6v-5.7c1.3,1.2,2.7,2.2,4.2,3.1c1.5,0.9,3.1,1.7,4.8,2.3c1.7,0.6,3.4,1.1,5.3,1.4c1.8,0.3,3.7,0.5,5.7,0.5
		c2.8,0,5.6-0.3,8.2-1c2.6-0.7,5-1.7,7.3-3c2.2-1.3,4.2-2.9,6-4.8c1.8-1.9,3.2-4,4.4-6.4c1.1,2.4,2.6,4.5,4.4,6.4
		c1.7,1.9,3.8,3.5,6,4.8c2.2,1.3,4.7,2.3,7.3,3c2.6,0.7,5.3,1,8.2,1c2.7,0,5.2-0.3,7.7-0.9c2.4-0.6,4.7-1.5,6.9-2.6
		c2.1-1.1,4.1-2.5,5.8-4.2c1.7-1.6,3.2-3.5,4.5-5.6c1,2,2.2,3.8,3.7,5.5c1.5,1.6,3.3,3,5.4,4.2c2.1,1.2,4.4,2.1,7,2.7
		c2.6,0.6,5.5,0.9,8.6,0.9c3,0,5.7-0.3,8.2-0.8c2.5-0.5,4.7-1.3,6.7-2.3c2-1,3.7-2.2,5.2-3.7c1.5-1.4,2.8-3.1,3.8-4.8
		c1.3,2.8,3.4,5,5.7,6.6c2.3,1.6,5,2.7,7.5,3.5c2.5,0.8,5,1.2,6.9,1.4c1.9,0.2,3.4,0.2,3.9,0.2c4.2,0,8-0.4,11.4-1.1
		c3.3-0.7,6.2-1.9,8.5-3.4c2.3-1.5,4.1-3.5,5.3-5.8c1.2-2.4,1.8-5.2,1.8-8.4C240.4,34.7,239.8,32.5,238.9,30.7z M72.9,32.6
		c-0.5,1.3-1.2,2.4-2,3.2c-0.8,0.9-1.8,1.5-3,1.9c-1.1,0.4-2.3,0.6-3.6,0.6c-1.3,0-2.5-0.2-3.6-0.6c-1.1-0.4-2.1-1.1-3-1.9
		c-0.8-0.9-1.5-1.9-2-3.2c-0.5-1.3-0.7-2.8-0.7-4.6c0-1.8,0.3-3.3,0.7-4.6c0.5-1.3,1.2-2.4,2-3.3c0.9-0.9,1.9-1.5,3-1.9
		c1.1-0.4,2.4-0.6,3.6-0.6c1.3,0,2.5,0.2,3.6,0.6c1.1,0.4,2.1,1.1,3,1.9c0.9,0.9,1.5,1.9,2,3.3c0.5,1.3,0.7,2.8,0.7,4.6
		C73.6,29.8,73.4,31.3,72.9,32.6z M125.1,32.7c-0.4,1-0.8,1.8-1.4,2.5c-0.6,0.7-1.2,1.3-2,1.8c-0.7,0.5-1.6,0.8-2.4,1
		c-0.9,0.2-1.8,0.3-2.7,0.3c-1.3,0-2.5-0.2-3.6-0.6c-1.1-0.4-2.1-1.1-3-1.9c-0.9-0.9-1.5-1.9-2-3.2c-0.5-1.3-0.7-2.8-0.7-4.6
		c0-1.8,0.3-3.3,0.7-4.6c0.5-1.3,1.2-2.4,2-3.3c0.8-0.9,1.8-1.5,3-1.9c1.1-0.4,2.3-0.6,3.6-0.6c0.9,0,1.8,0.1,2.6,0.3
		c0.8,0.2,1.6,0.5,2.3,0.9c0.7,0.4,1.4,0.9,1.9,1.6c0.6,0.6,1.1,1.4,1.4,2.2h13.3v7.9c0,0.2,0,0.4,0,0.6c0,0.2,0,0.4,0,0.6
		c0,0.2,0,0.4,0,0.6c0,0.2,0,0.4,0,0.6H125.1z M220.3,41c-0.5,0.5-1.1,0.9-1.8,1.1c-0.7,0.3-1.4,0.4-2.1,0.5
		c-0.7,0.1-1.2,0.1-1.6,0.1c-1,0-2-0.1-2.8-0.2c-0.8-0.1-1.6-0.3-2.2-0.6c-0.6-0.3-1.1-0.6-1.6-1c-0.4-0.4-0.7-0.9-0.9-1.4
		c-0.1-0.2-0.2-0.4-0.2-0.7c-0.1-0.2-0.1-0.5-0.2-0.7c0-0.2-0.1-0.5-0.1-0.8c0-0.3,0-0.5,0-0.8v-0.9h-14.6c0.1-0.4,0.1-0.8,0.2-1.2
		c0-0.4,0.1-0.8,0.1-1.2c0-0.4,0.1-0.8,0.1-1.3c0-0.4,0-0.9,0-1.3v-4.7c0.9,1.1,2,2,3.2,2.8c1.2,0.8,2.5,1.5,4,2.1
		c1.4,0.6,2.9,1.2,4.4,1.6c1.5,0.5,3,0.9,4.5,1.3l1,0.2c2.4,0.6,4.3,1.1,5.9,1.6c1.5,0.4,2.7,0.8,3.5,1.2c0.8,0.4,1.4,0.7,1.7,1
		c0.3,0.4,0.5,0.8,0.5,1.2C221.1,39.8,220.8,40.5,220.3,41z"/>
	<rect x="245.4" y="22.7" class="st0" width="9.6" height="8.6"/>
</g>
</svg>
